<?xml version="1.0" standalone="no"?>
<!DOCTYPE svg PUBLIC "-//W3C//DTD SVG 20010904//EN"
 "http://www.w3.org/TR/2001/REC-SVG-20010904/DTD/svg10.dtd">
<svg version="1.0" xmlns="http://www.w3.org/2000/svg"
 width="256.000000pt" height="256.000000pt" viewBox="0 0 256.000000 256.000000"
 preserveAspectRatio="xMidYMid meet">
<metadata>
Created by potrace 1.15, written by Peter Selinger 2001-2017
</metadata>
<g transform="translate(0.000000,256.000000) scale(0.100000,-0.100000)"
fill="#000000" stroke="none">
<path d="M723 1999 c-26 -7 -64 -52 -203 -233 -94 -123 -178 -227 -186 -230
-9 -3 -75 -9 -147 -13 -126 -6 -133 -7 -159 -34 l-28 -27 0 -290 0 -290 31
-31 31 -31 117 0 118 0 22 60 c41 113 126 193 239 226 162 47 343 -52 403
-221 l24 -65 296 0 296 0 12 43 c47 158 205 270 359 253 148 -16 261 -120 308
-283 2 -10 36 -13 123 -13 l119 0 32 36 32 37 -4 151 c-3 140 -5 155 -31 210
-77 165 -206 246 -427 267 -58 5 -113 15 -123 22 -10 7 -94 102 -185 211 -92
110 -179 208 -193 218 -14 11 -43 23 -65 28 -51 12 -769 11 -811 -1z m357
-334 l0 -145 -209 0 c-115 0 -222 3 -239 6 l-31 6 60 82 c33 44 80 104 104
133 50 58 49 58 228 61 l87 2 0 -145z m423 113 c28 -26 207 -245 207 -253 0
-3 -97 -5 -215 -5 l-215 0 0 140 0 140 99 0 c90 0 102 -2 124 -22z"/>
<path d="M545 992 c-144 -68 -180 -264 -69 -376 99 -99 274 -84 357 31 25 35
31 54 34 115 4 66 2 78 -24 128 -40 75 -98 111 -190 117 -52 3 -77 -1 -108
-15z"/>
<path d="M1830 994 c-92 -40 -142 -115 -142 -214 0 -97 43 -167 126 -206 190
-89 382 76 325 280 -14 51 -91 128 -145 144 -55 16 -121 15 -164 -4z"/>
</g>
</svg>
